# xmcd
#
# Track frame offsets:
#	150
#	18380
#	32632
#	49792
#	62267
#	74117
#	88890
#	101700
#	116415
#	129322
#	144075
#	156772
#
# Disc length: 2306 seconds
#
# Revision: 2
# Processed by: cddbd v1.5.2PL0 Copyright (c) Steve Scherf et al.
# Submitted via: audiograbber 1.83.01
#
DISCID=9d09000c
DTITLE=Heirloom/Thompson/Easters - Christmas In The Country
DYEAR=1990
DGENRE=Christmas
TTITLE0=O Come, All Ye Faithful
TTITLE1=New Star Shining
TTITLE2=What Child Is This
TTITLE3=Glory To God In The Highest
TTITLE4=Away In A Manger
TTITLE5=Christmas All Year
TTITLE6=Go Tell It On The Mountain
TTITLE7=Greatest Gift Of All
TTITLE8=The Christmas Tree
TTITLE9=Sleep Baby Jesus
TTITLE10=Silent Night
TTITLE11=Mary Held The Little Lamb
EXTD=
EXTT0=
EXTT1=
EXTT2=
EXTT3=
EXTT4=
EXTT5=
EXTT6=
EXTT7=
EXTT8=
EXTT9=
EXTT10=
EXTT11=
PLAYORDER=
